<svg width="24" height="24" viewBox="0 0 24 24" fill="none" xmlns="http://www.w3.org/2000/svg">
<g clip-path="url(#clip0_1001_2)">
<path d="M22.56 12.25C22.56 11.45 22.49 10.68 22.36 9.92H12V14.45H18.02C17.74 15.89 16.94 17.14 15.82 17.86V20.59H19.5C21.52 18.75 22.56 15.83 22.56 12.25Z" fill="#4285F4"/>
<path d="M12 23C14.97 23 17.45 22.02 19.5 20.59L15.82 17.86C14.82 18.52 13.53 18.96 12 18.96C9.13 18.96 6.69 17.14 5.82 14.7H2.04V17.52C3.96 20.78 7.69 23 12 23Z" fill="#34A853"/>
<path d="M5.82 14.7C5.59 14.04 5.45 13.27 5.45 12.47C5.45 11.67 5.59 10.9 5.82 10.24V7.51H2.04C1.21 9.17 0.73 10.96 0.73 12.47C0.73 13.98 1.21 15.77 2.04 17.52L5.82 14.7Z" fill="#FBBC05"/>
<path d="M12 5.99C13.67 5.99 15.14 6.58 16.2 7.6L19.57 4.35C17.45 2.33 14.97 1 12 1C7.69 1 3.96 3.22 2.04 6.48L5.82 9.21C6.69 6.86 9.13 5.99 12 5.99Z" fill="#EA4335"/>
</g>
<defs>
<clipPath id="clip0_1001_2">
<rect width="24" height="24" fill="white"/>
</clipPath>
</defs>
</svg>
